RBDS028runT25_grf
version=1
nRows=15
nColumns=19
inDegrees=no
endheader
time	ground_force_r_vx	ground_force_r_vy	ground_force_r_vz	ground_force_r_px	ground_force_r_py	ground_force_r_pz	ground_force_r_mx	ground_force_r_my	ground_force_r_mz	ground_force_l_vx	ground_force_l_vy	ground_force_l_vz	ground_force_l_px	ground_force_l_py	ground_force_l_pz	ground_force_l_mx	ground_force_l_my	ground_force_l_mz
     22.49800000	      0.00000000	      0.00000000	      0.00000000	      0.00000000	      0.00000000	      0.00000000	      0.00000000	      0.00000000	      0.00000000	    -80.86756802	   1301.19950018	     25.13994070	      2.08235042	      0.00000000	      0.98388270	      0.00000000	      3.63499712	      0.00000000
     22.49900000	      0.00000000	      0.00000000	      0.00000000	      0.00000000	      0.00000000	      0.00000000	      0.00000000	      0.00000000	      0.00000000	    -77.85668148	   1303.49610020	     25.40750365	      2.08029932	      0.00000000	      0.98380977	      0.00000000	      3.67607020	      0.00000000
     22.50000000	      0.00000000	      0.00000000	      0.00000000	      0.00000000	      0.00000000	      0.00000000	      0.00000000	      0.00000000	      0.00000000	    -74.84579495	   1305.79270022	     25.67506660	      2.07824822	      0.00000000	      0.98373684	      0.00000000	      3.71714327	      0.00000000
     22.50100000	      0.00000000	      0.00000000	      0.00000000	      0.00000000	      0.00000000	      0.00000000	      0.00000000	      0.00000000	      0.00000000	    -71.60027881	   1307.35381854	     25.75974403	      2.07615499	      0.00000000	      0.98368485	      0.00000000	      3.75434795	      0.00000000
     22.50200000	      0.00000000	      0.00000000	      0.00000000	      0.00000000	      0.00000000	      0.00000000	      0.00000000	      0.00000000	      0.00000000	    -68.35476267	   1308.91493687	     25.84442146	      2.07406175	      0.00000000	      0.98363286	      0.00000000	      3.79155262	      0.00000000
     22.50300000	      0.00000000	      0.00000000	      0.00000000	      0.00000000	      0.00000000	      0.00000000	      0.00000000	      0.00000000	      0.00000000	    -65.10924654	   1310.47605520	     25.92909889	      2.07196851	      0.00000000	      0.98358086	      0.00000000	      3.82875730	      0.00000000
     22.50400000	      0.00000000	      0.00000000	      0.00000000	      0.00000000	      0.00000000	      0.00000000	      0.00000000	      0.00000000	      0.00000000	    -61.73131666	   1311.52587659	     25.89518453	      2.06984838	      0.00000000	      0.98354207	      0.00000000	      3.86319974	     -0.00000000
     22.50500000	      0.00000000	      0.00000000	      0.00000000	      0.00000000	      0.00000000	      0.00000000	      0.00000000	      0.00000000	      0.00000000	    -58.28717992	   1312.32004951	     25.80197427	      2.06771479	      0.00000000	      0.98350987	      0.00000000	      3.89626106	     -0.00000000
     22.50600000	      0.00000000	      0.00000000	      0.00000000	      0.00000000	      0.00000000	      0.00000000	      0.00000000	      0.00000000	      0.00000000	    -54.84304319	   1313.11422243	     25.70876401	      2.06558121	      0.00000000	      0.98347767	      0.00000000	      3.92932238	     -0.00000000
     22.50700000	      0.00000000	      0.00000000	      0.00000000	      0.00000000	      0.00000000	      0.00000000	      0.00000000	      0.00000000	      0.00000000	    -51.34586311	   1313.64170031	     25.55975343	      2.06343518	      0.00000000	      0.98345150	      0.00000000	      3.96098146	     -0.00000000
     22.50800000	      0.00000000	      0.00000000	      0.00000000	      0.00000000	      0.00000000	      0.00000000	      0.00000000	      0.00000000	      0.00000000	    -47.74259637	   1313.63578811	     25.29914220	      2.06126426	      0.00000000	      0.98343739	      0.00000000	      3.98983605	     -0.00000000
     22.50900000	      0.00000000	      0.00000000	      0.00000000	      0.00000000	      0.00000000	      0.00000000	      0.00000000	      0.00000000	      0.00000000	    -44.13932962	   1313.62987592	     25.03853098	      2.05909335	      0.00000000	      0.98342328	      0.00000000	      4.01869064	     -0.00000000
     22.51000000	      0.00000000	      0.00000000	      0.00000000	      0.00000000	      0.00000000	      0.00000000	      0.00000000	      0.00000000	      0.00000000	    -40.53606288	   1313.62396372	     24.77791976	      2.05692244	      0.00000000	      0.98340916	      0.00000000	      4.04754523	     -0.00000000
     22.51100000	      0.00000000	      0.00000000	      0.00000000	      0.00000000	      0.00000000	      0.00000000	      0.00000000	      0.00000000	      0.00000000	    -36.81571925	   1312.78496451	     24.36490613	      2.05471820	      0.00000000	      0.98341103	      0.00000000	      4.07229470	     -0.00000000
     22.51200000	      0.00000000	      0.00000000	      0.00000000	      0.00000000	      0.00000000	      0.00000000	      0.00000000	      0.00000000	      0.00000000	    -33.09537561	   1311.94596531	     23.95189250	      2.05251397	      0.00000000	      0.98341289	      0.00000000	      4.09704417	     -0.00000000
